<?xml version="1.0" standalone="no"?><!DOCTYPE svg PUBLIC "-//W3C//DTD SVG 1.1//EN" "http://www.w3.org/Graphics/SVG/1.1/DTD/svg11.dtd"><svg t="1612399423947" class="icon" viewBox="0 0 1024 1024" version="1.1" xmlns="http://www.w3.org/2000/svg" p-id="1980" xmlns:xlink="http://www.w3.org/1999/xlink" width="200" height="200"><defs><style type="text/css"></style></defs><path d="M440.6 834.15H169.84c-20.48 0-37.14-16.67-37.14-37.15V419.47h717.09v21.29c0 18.12 14.68 32.8 32.8 32.8s32.8-14.68 32.8-32.8V254.11c0-56.65-46.09-102.74-102.75-102.74h-77.23v-41.16c0-18.12-14.69-32.8-32.8-32.8s-32.8 14.69-32.8 32.8v41.16H317.88v-41.16c0-18.12-14.69-32.8-32.8-32.8-18.12 0-32.8 14.69-32.8 32.8v41.16h-82.45c-56.65 0-102.74 46.08-102.74 102.74V797c0 56.65 46.08 102.75 102.74 102.75H440.6c18.12 0 32.8-14.68 32.8-32.8 0-18.12-14.68-32.8-32.8-32.8zM169.84 216.97h82.45v35.49c0 18.12 14.69 32.8 32.8 32.8 18.12 0 32.8-14.69 32.8-32.8v-35.49h351.93v35.49c0 18.12 14.69 32.8 32.8 32.8s32.8-14.69 32.8-32.8v-35.49h77.23c20.48 0 37.15 16.66 37.15 37.14v99.76H132.7v-99.76c0-20.48 16.66-37.14 37.14-37.14z" p-id="1981"></path><path d="M351.34 526.46H218.83c-18.12 0-32.8 14.69-32.8 32.8s14.69 32.8 32.8 32.8h132.51c18.12 0 32.8-14.69 32.8-32.8s-14.68-32.8-32.8-32.8zM813.75 682.43h-69.31v-77.97c0-15.1-12.24-27.33-27.33-27.33-15.1 0-27.33 12.24-27.33 27.33v105.3c0 15.1 12.24 27.33 27.33 27.33h96.64c15.09 0 27.33-12.24 27.33-27.33s-12.23-27.33-27.33-27.33zM351.34 701.38H218.83c-18.12 0-32.8 14.69-32.8 32.8 0 18.12 14.69 32.8 32.8 32.8h132.51c18.12 0 32.8-14.69 32.8-32.8 0-18.12-14.68-32.8-32.8-32.8z" p-id="1982"></path><path d="M716.05 464.75C583.14 464.75 475 572.89 475 705.8s108.14 241.05 241.05 241.05S957.1 838.71 957.1 705.8 848.96 464.75 716.05 464.75z m0 416.49c-96.75 0-175.45-78.7-175.45-175.45s78.7-175.45 175.45-175.45S891.5 609.05 891.5 705.8s-78.7 175.44-175.45 175.44z" p-id="1983"></path></svg>