<?xml version="1.0" standalone="no"?><!DOCTYPE svg PUBLIC "-//W3C//DTD SVG 1.1//EN" "http://www.w3.org/Graphics/SVG/1.1/DTD/svg11.dtd"><svg t="1612598025257" class="icon" viewBox="0 0 1024 1024" version="1.1" xmlns="http://www.w3.org/2000/svg" p-id="6632" xmlns:xlink="http://www.w3.org/1999/xlink" width="200" height="200"><defs><style type="text/css"></style></defs><path d="M831.808 869.184V171.168l-97.856-65.312-356.704 159.2v123.2l-197.12 68.64v412.288H160v48.992h64.352V485.472l261.472-85.696v518.4h181.024v-53.056h-40.224V391.584l-94.912-57.152-106.24 36.992V293.6l257.472-114.304v738.848H864v-48.992h-32.192v0.032zM256.544 595.68l189.056-61.216v-81.632l-189.056 65.312v77.536z m0 106.144l189.056-40.832v-81.632l-189.056 48.992v73.472z m0 110.208l189.056-24.512v-81.632l-189.056 28.576v77.568z m0 106.112l189.056-4.096v-81.632l-189.056 8.192v77.536z" p-id="6633"></path></svg>