<?xml version="1.0" standalone="no"?><!DOCTYPE svg PUBLIC "-//W3C//DTD SVG 1.1//EN" "http://www.w3.org/Graphics/SVG/1.1/DTD/svg11.dtd"><svg t="1612597652019" class="icon" viewBox="0 0 1024 1024" version="1.1" xmlns="http://www.w3.org/2000/svg" p-id="2836" xmlns:xlink="http://www.w3.org/1999/xlink" width="200" height="200"><defs><style type="text/css"></style></defs><path d="M827.12064 169.23136H159.2576a30.72 30.72 0 1 0 0 61.44h667.85792a30.72 30.72 0 0 0 0.00512-61.44zM680.61696 50.80576H305.76128a30.72 30.72 0 1 0 0 61.44h374.85568a30.72 30.72 0 1 0 0-61.44zM952.32 326.38976v614.4c-14.08 27.79136-34.8928 36.46464-62.60224 36.36736-253.52192-0.896-507.04896-0.90112-760.576 0.01024-27.72992 0.09728-48.47616-8.67328-62.58688-36.37248v-614.4c11.52-29.31712 31.7696-38.784 58.78272-38.72768 255.104 0.51712 510.208 0.4864 765.30688 0.04608 27.45856-0.05632 48.82944 9.33376 61.67552 38.67648z m-62.4384 35.29728H129.69472v542.32576h760.18688V361.68704z" p-id="2837"></path><path d="M541.48096 695.02976c39.0656 0 76.57984-0.1536 114.08896 0.05632 24.04864 0.13312 35.95264 11.26912 36.55168 33.40288 0.6144 22.87104-12.16 36.74112-36.4288 37.1712-37.51424 0.6656-75.04384 0.17408-115.51232 0.17408 0 21.95456 0.2304 42.112-0.05632 62.2592-0.384 27.1104-10.77248 41.97888-29.2352 42.62912-19.74272 0.6912-31.6928-14.72-32.13824-42.17344-0.31744-19.53792-0.06144-39.08608-0.06144-62.68416-31.70816 0-62.34112 0.03072-92.9792-0.02048-9.58976-0.01536-19.31776 0.90112-28.73856-0.62464-17.94048-2.90304-30.87872-13.37344-29.96224-36.57216 0.90624-22.9632 13.82912-33.08544 32.41472-33.42336 31.72864-0.57856 63.46752-0.18432 95.20128-0.19968h22.83008v-53.72928c-30.8736 0-61.50144 0.0256-92.12928-0.01536-10.33216-0.01024-20.72064 0.6144-30.976-0.45568-17.14176-1.78688-27.1104-13.12768-27.392-33.27488-0.29696-21.10976 9.21088-34.5088 27.648-35.52768 24.29952-1.34144 48.6912-0.55808 73.04192-0.78848 3.37408-0.03072 6.74304-0.60928 15.93856-1.50016-26.368-30.03392-49.55136-55.71072-71.98208-82.23232-15.6928-18.54976-15.15008-42.38336 0.86016-55.47008 16.04096-13.1072 30.3616-8.04864 43.33568 7.31648 30.3104 35.8912 60.81024 71.57248 94.17728 110.80704 31.40608-37.39136 60.42624-72.32 89.83552-106.80832 18.97472-22.25664 35.49184-24.63744 49.69984-8.2432 14.2592 16.4608 12.14464 35.88096-6.64576 57.63584-21.15584 24.4992-42.51648 48.768-68.52096 78.5664 31.31392 0 55.99744-0.3328 80.67584 0.09216 23.8848 0.4096 36.37248 12.07808 37.0432 33.47968 0.69632 22.32832-12.21632 35.7632-36.93056 36.18304-37.45792 0.63488-74.9312 0.16384-113.65376 0.16384v53.80608z" p-id="2838"></path></svg>