<?xml version="1.0" standalone="no"?><!DOCTYPE svg PUBLIC "-//W3C//DTD SVG 1.1//EN" "http://www.w3.org/Graphics/SVG/1.1/DTD/svg11.dtd"><svg t="1612597857046" class="icon" viewBox="0 0 1210 1024" version="1.1" xmlns="http://www.w3.org/2000/svg" p-id="4228" xmlns:xlink="http://www.w3.org/1999/xlink" width="236.328125" height="200"><defs><style type="text/css"></style></defs><path d="M489.36899 1024H38.112999a36.130999 36.130999 0 0 1-27.974999-13.416c-8.888-10.824-12.09-26.495999-8.796-42.959999l187.209996-935.745982A40.063999 40.063999 0 0 1 227.151996 0.00002h300.862994a36.145999 36.145999 0 0 1 36.160999 37.472999l-31.205999 935.759982c-0.915 28.462999-20.093 50.766999-43.601 50.766999zM49.485999 975.216001h434.165992a15.504 15.504 0 0 0 0.564-3.614l30.779999-922.817982H234.911995z m995.018981-611.436988h-349.509994c-20.81 0-38.341999-17.898-39.088999-39.910999l-9.513-286.394995A36.145999 36.145999 0 0 1 682.523987 0.00002h300.892994a40.063999 40.063999 0 0 1 38.569999 31.877999l57.367999 286.394995a39.133999 39.133999 0 0 1-7.623 32.684999 35.063999 35.063999 0 0 1-27.226999 12.821z m-340.072994-48.783999h324.476994l-53.219999-266.209995H695.542986zM1172.502977 999.608H721.094986c-10.062 0-18.706-12.303-19.21-27.197999L687.189987 531.52101c-0.366-10.595 6.22-19.208 14.604999-19.208h376.234993c8.385 0 16.968 8.613 19.087 19.208l88.237998 440.889991c2.988 14.894-2.79 27.196999-12.851 27.196999z" p-id="4229"></path><path d="M1172.502977 1024H721.094986c-23.493 0-42.686999-22.304-43.585999-50.765999l-14.697-440.889991a45.018999 45.018999 0 0 1 12.12-32.822 37.167999 37.167999 0 0 1 26.861999-11.602h376.234993c20.093 0 38.569999 16.694 43.005999 38.814l88.238998 440.889991c3.293 16.464 0.091 32.135999-8.795999 42.959999a36.130999 36.130999 0 0 1-27.975 13.416z m-445.614991-48.783999h434.149991l-87.780998-438.510991H711.825986l14.498 434.896991a15.504 15.504 0 0 0 0.564 3.614z" p-id="4230"></path></svg>