<?xml version="1.0" standalone="no"?><!DOCTYPE svg PUBLIC "-//W3C//DTD SVG 1.1//EN" "http://www.w3.org/Graphics/SVG/1.1/DTD/svg11.dtd"><svg t="1612597697004" class="icon" viewBox="0 0 1024 1024" version="1.1" xmlns="http://www.w3.org/2000/svg" p-id="3613" xmlns:xlink="http://www.w3.org/1999/xlink" width="200" height="200"><defs><style type="text/css"></style></defs><path d="M792.877 120.155c8.982 0 17.493 3.564 23.964 10.035s10.036 14.982 10.036 23.964v715.689c0 8.982-3.564 17.493-10.036 23.965s-14.982 10.035-23.964 10.035H231.123c-8.982 0-17.493-3.564-23.965-10.035-6.472-6.471-10.035-14.982-10.035-23.965V154.155c0-8.982 3.564-17.493 10.035-23.964S222.14 120.156 231.123 120.156l561.754-0.001m0-56H231.123c-49.5 0-90 40.5-90 90v715.689c0 49.5 40.5 90 90 90h561.755c49.5 0 90-40.5 90-90V154.155c-0.001-49.5-40.501-90-90.001-90z" p-id="3614"></path><path d="M730.42 826.312H293.58c-15.464 0-28-12.536-28-28s12.536-28 28-28h436.84c15.464 0 28 12.536 28 28s-12.536 28-28 28zM730.42 672.312H293.58c-15.464 0-28-12.536-28-28s12.536-28 28-28h436.84c15.464 0 28 12.536 28 28s-12.536 28-28 28z" p-id="3615"></path><path d="M617.019 422.396H540v-47.495h77.019c15.464 0 28-12.536 28-28s-12.536-28-28-28H551.69l73.028-73.028c10.935-10.935 10.935-28.663 0-39.598-10.934-10.936-28.664-10.935-39.598 0l-73.119 73.12-73.121-73.12c-10.935-10.935-28.663-10.935-39.598 0s-10.935 28.663 0 39.598l73.029 73.028h-65.33c-15.464 0-28 12.536-28 28s12.536 28 28 28H484v47.495h-77.019c-15.464 0-28 12.536-28 28s12.536 28 28 28H484v29.228c0 14.43 12.536 26.128 28 26.128s28-11.698 28-26.128v-29.228h77.019c15.464 0 28-12.536 28-28s-12.537-28-28-28z" p-id="3616"></path></svg>