<?xml version="1.0" standalone="no"?><!DOCTYPE svg PUBLIC "-//W3C//DTD SVG 1.1//EN" "http://www.w3.org/Graphics/SVG/1.1/DTD/svg11.dtd"><svg t="1612598520110" class="icon" viewBox="0 0 1024 1024" version="1.1" xmlns="http://www.w3.org/2000/svg" p-id="7397" xmlns:xlink="http://www.w3.org/1999/xlink" width="200" height="200"><defs><style type="text/css"></style></defs><path d="M118.766 665.802c-16.264 0-29.448 13.185-29.448 29.45v234.542c0 16.265 13.185 29.45 29.448 29.45 16.266 0 29.45-13.186 29.45-29.45V695.252c0-16.265-13.184-29.45-29.45-29.45z m198.522-118.704c-16.265 0-29.449 13.186-29.449 29.45v353.246c0 16.265 13.185 29.45 29.449 29.45 16.265 0 29.45-13.186 29.45-29.45V576.548c0-16.264-13.185-29.45-29.45-29.45z m194.71 58.329c-16.263 0-29.448 13.185-29.448 29.45v294.917c0 16.265 13.185 29.45 29.448 29.45 16.266 0 29.45-13.186 29.45-29.45V634.877c0-16.265-13.185-29.45-29.45-29.45zM710.52 488.77c-16.264 0-29.448 13.185-29.448 29.45v411.574c0 16.265 13.185 29.45 29.448 29.45 16.265 0 29.45-13.186 29.45-29.45V518.22c0-16.265-13.186-29.45-29.45-29.45z m198.521-59.352c-16.263 0-29.447 13.185-29.447 29.45v470.926c0 16.265 13.185 29.45 29.447 29.45 16.266 0 29.45-13.186 29.45-29.45V458.868c0-16.265-13.185-29.45-29.45-29.45z" p-id="7398"></path><path d="M951.931 111.24a30.06 30.06 0 0 0-1.107-1.175 30.04 30.04 0 0 0-1.176-1.108 29.335 29.335 0 0 0-19.646-7.519H793.695c-16.265 0-29.45 13.186-29.45 29.449 0 16.264 13.186 29.45 29.45 29.45h55.352L509.925 451.712 287.316 368.3a29.375 29.375 0 0 0-10.608-1.873c-8.318-0.092-16.62 3.315-22.52 10.072L71.007 586.44c-10.697 12.252-9.436 30.857 2.815 41.552 12.252 10.698 30.856 9.438 41.552-2.814l169.915-194.74 218.609 81.912a29.523 29.523 0 0 0 10.315 2.478c0.064 0.005 0.13 0.008 0.194 0.012a28.944 28.944 0 0 0 2.27 0.027 31.385 31.385 0 0 0 1.248-0.058 29.544 29.544 0 0 0 18.718-8.404l362.475-311.44c0.497-0.424 0.97-0.866 1.432-1.316v73.541c0 16.266 13.185 29.45 29.449 29.45s29.448-13.185 29.448-29.45V130.887a29.32 29.32 0 0 0-7.516-19.646z" p-id="7399"></path></svg>