<?xml version="1.0" standalone="no"?><!DOCTYPE svg PUBLIC "-//W3C//DTD SVG 1.1//EN" "http://www.w3.org/Graphics/SVG/1.1/DTD/svg11.dtd"><svg t="1612399042221" class="icon" viewBox="0 0 1024 1024" version="1.1" xmlns="http://www.w3.org/2000/svg" p-id="1182" xmlns:xlink="http://www.w3.org/1999/xlink" width="200" height="200"><defs><style type="text/css"></style></defs><path d="M693.23 235.1v181.21h51.78V235.1c0-42.93-34.78-77.7-77.67-77.7h-51.78v51.78h51.78c14.3 0 25.89 11.61 25.89 25.92z m-401.3 25.87c21.45 0 38.84-17.37 38.84-38.81v-77.67c0-21.46-17.38-38.86-38.84-38.86-21.45 0-38.83 17.4-38.83 38.86v77.67c0 21.44 17.38 38.81 38.83 38.81zM486.11 157.4H356.66v51.78h129.45V157.4z m64.72 103.57c21.46 0 38.84-17.37 38.84-38.81v-77.67c0-21.46-17.38-38.86-38.84-38.86-21.45 0-38.83 17.4-38.83 38.86v77.67c0 21.44 17.38 38.81 38.83 38.81z m-401.3 543.69V235.1c0-14.31 11.59-25.92 25.89-25.92h51.78V157.4h-51.78c-42.9 0-77.67 34.76-77.67 77.7v569.56c0 42.9 34.76 77.67 77.67 77.67h155.34v-51.78H175.42c-14.29 0-25.89-11.58-25.89-25.89zM253.1 416.31h336.57c14.3 0 25.89-11.58 25.89-25.89 0-14.28-11.59-25.89-25.89-25.89H253.1c-14.3 0-25.89 11.61-25.89 25.89 0 14.31 11.59 25.89 25.89 25.89z m77.67 129.45H253.1c-14.3 0-25.89 11.6-25.89 25.91 0 14.26 11.59 25.86 25.89 25.86h77.67c14.3 0 25.89-11.6 25.89-25.86 0-14.31-11.6-25.91-25.89-25.91z m594.42 139.89c-7.92-21.31-20.1-35.7-46.01-32.77-3.82 0.41-10.63-7.43-12.72-12.74-12.33-31.78-24.04-63.82-35.21-96.05-7.03-20.4-21.26-33.77-40.94-39.21-26.59-7.38-53.99-11.86-81.03-17.59-39.5-5.87-75.21-6.07-118.43 0-15.38 2.37-30.88 4.29-46.18 7.23-40.64 7.84-72.47 25.56-84.07 69.63-6.93 26.2-17.32 51.58-27.01 76.97-1.88 4.9-8.2 12.23-11.64 11.78-28.37-3.59-39.45 13.75-47.02 36.26-1.38 5.21-0.6 9.99 0 13.91 10.91 2.88 21.78 5.77 29.46 7.79-0.54 41.11-1.15 81.92-1.55 122.72-0.22 22-1.09 44.05 0.42 65.94 0.73 10.11 4.49 25.84 10 29.73 4.07 5.46 76.95 5.26 90.55 0 6.23-2.37 9.31-34.46 14.48-53.55H785.4c6.56 18.05-6 40.3 14.43 53.55 6.1 4.25 84.74 4.53 88.27-1.55 3.73-2.35 9.1-16.76 9.27-26.06 1.03-51.93 0.73-103.91 0.3-155.9-0.07-11.38-2.6-22.78-4-33.98 9.93-2.73 20.72-5.72 31.52-8.7 0.84-4.37 1.88-10.88 0-17.41z m-385.72 93.04c-2.14 5.81-10.74 11.33-17.52 12.89-9.33 2.2-19.68 2.53-29.49 2.53-0.03 0.35-0.01 0.17 0 0-0.01 0-0.01-0.01-0.01-0.01-14.35-1.49-28.93-1.87-42.97-4.8-18.26-3.82-23.39-17.45-17.89-41.84 3.76-16.71 16.82-17.45 28.52-13.58 23.51 7.71 46.54 17.13 68.97 27.55 5.38 2.5 11.91 13.12 10.39 17.26z m-70.59-117.36c13.48-37.83 25.12-72.82 38.79-106.95 2.6-6.57 12.65-12.34 20.28-14.18 18.51-4.42 37.65-8.88 56.5-8.73 57.27 0.4 114.55 2.48 171.79 5.06 23.5 1.04 39.26 13.04 45.85 37.42 7.68 28.42 17.85 56.13 27.97 87.39-120.71 26.04-238.39 25.43-361.18-0.01z m385.16 127.15c-15.07 3.51-30.78 4.07-43.45 5.58-14.48-1.19-26.24-0.96-37.4-3.38-13.93-3.04-18.32-19.47-6.08-25.43 26.65-12.95 54.79-23.32 83.12-32.09 11.34-3.52 19.17 5.94 19.56 18.53 0.49 14.72 4.82 32.06-15.75 36.79z m-361.6 5.63c0.04-0.32 0.01-0.14 0 0z m0 0" p-id="1183"></path></svg>